<?xml version="1.0" encoding="UTF-8"?>
<svg id="_レイヤー_1" data-name="レイヤー_1" xmlns="http://www.w3.org/2000/svg" version="1.1" viewBox="0 0 25.071 24.979">
  <!-- Generator: Adobe Illustrator 29.2.1, SVG Export Plug-In . SVG Version: 2.1.0 Build 116)  -->
  <path d="M12.536,0C5.612,0,0,5.612,0,12.536c0,5.879,4.047,10.812,9.507,12.166v-8.336h-2.585v-3.831h2.585v-1.651c0-4.267,1.931-6.244,6.12-6.244.794,0,2.164.156,2.725.311v3.473c-.296-.031-.81-.047-1.448-.047-2.055,0-2.85.779-2.85,2.803v1.355h4.095l-.703,3.831h-3.391v8.613c6.207-.75,11.017-6.035,11.017-12.444C25.071,5.612,19.459,0,12.536,0Z" style="fill: #0866ff;"/>
</svg>