<?xml version="1.0" encoding="UTF-8"?>
<svg id="_レイヤー_1" data-name="レイヤー_1" xmlns="http://www.w3.org/2000/svg" version="1.1" viewBox="0 0 26.251 25.013">
  <!-- Generator: Adobe Illustrator 29.2.1, SVG Export Plug-In . SVG Version: 2.1.0 Build 116)  -->
  <path d="M26.251,10.652C26.251,4.778,20.363,0,13.125,0S0,4.778,0,10.652c0,5.265,4.67,9.675,10.977,10.509.427.092,1.009.282,1.156.647.132.332.087.852.043,1.187,0,0-.154.926-.187,1.124-.057.332-.264,1.298,1.137.708,1.401-.59,7.559-4.451,10.313-7.62h0c1.902-2.086,2.813-4.203,2.813-6.554ZM8.495,13.792c0,.138-.112.251-.251.251h-3.688c-.138,0-.251-.112-.251-.251v-.004h0v-5.724c0-.138.112-.251.251-.251h.931c.138,0,.251.113.251.251v4.547h2.506c.138,0,.251.113.251.251v.931ZM10.715,13.792c0,.138-.112.251-.251.251h-.931c-.138,0-.251-.112-.251-.251v-5.728c0-.138.112-.251.251-.251h.931c.138,0,.251.112.251.251v5.728ZM17.051,13.792c0,.138-.112.251-.251.251h-.926c-.023,0-.045-.003-.065-.009-.001,0-.002,0-.004,0-.006-.002-.012-.004-.017-.006-.003,0-.005-.002-.008-.003-.004-.002-.008-.003-.012-.005-.004-.002-.008-.004-.012-.006-.003-.001-.005-.003-.007-.004-.005-.003-.011-.006-.016-.01-.001,0-.002-.001-.003-.002-.024-.017-.047-.038-.065-.063l-2.624-3.544v3.401c0,.138-.112.251-.251.251h-.931c-.138,0-.251-.112-.251-.251v-5.728c0-.138.112-.251.251-.251h.926s.006,0,.009,0c.004,0,.009,0,.013,0,.005,0,.009.001.014.002.004,0,.007,0,.011.002.005,0,.01.002.015.003.003,0,.006.001.009.002.005.001.01.003.015.005.003,0,.005.002.008.003.005.002.01.004.015.006.003.001.005.002.008.004.005.002.009.005.014.008.003.002.005.003.008.005.005.003.009.006.013.009.002.002.005.003.007.005.005.004.009.008.014.011.002.001.003.003.005.004.005.005.01.01.015.016,0,0,.001.001.002.002.007.008.014.017.02.026l2.621,3.539v-3.402c0-.138.112-.251.251-.251h.931c.138,0,.251.112.251.251v5.728ZM22.135,8.995c0,.138-.112.251-.251.251h-2.506v.967h2.506c.138,0,.251.113.251.251v.931c0,.138-.112.251-.251.251h-2.506v.967h2.506c.138,0,.251.113.251.251v.931c0,.138-.112.251-.251.251h-3.688c-.138,0-.251-.112-.251-.251v-.004h0v-5.718h0v-.006c0-.138.112-.251.251-.251h3.688c.138,0,.251.113.251.251v.931Z" style="fill: #07c856;"/>
</svg>