<?xml version="1.0" encoding="UTF-8"?>
<svg id="_レイヤー_1" data-name="レイヤー_1" xmlns="http://www.w3.org/2000/svg" version="1.1" viewBox="0 0 46.224 41.813">
  <!-- Generator: Adobe Illustrator 29.2.1, SVG Export Plug-In . SVG Version: 2.1.0 Build 116)  -->
  <path d="M20.271.93c-1.997-.62-4.454-.93-6.757-.93C4.453,0,0,4.182,0,11.925v29.888h18.121v-25.707h-7.832v-3.406c0-2.633.921-3.252,3.993-3.252,1.382,0,2.917.154,4.607.464l1.382-8.982ZM46.224.93c-1.997-.62-4.454-.93-6.757-.93-9.061,0-13.514,4.182-13.514,11.925v29.888h18.121v-25.707h-7.832v-3.406c0-2.633.921-3.252,3.993-3.252,1.382,0,2.918.154,4.607.464l1.382-8.982Z" style="fill-rule: evenodd; isolation: isolate; opacity: .051;"/>
</svg>