<svg data-name="レイヤー_1" xmlns="http://www.w3.org/2000/svg" viewBox="0 0 46.224 41.813"><path d="M20.271.93C18.274.31 15.817 0 13.514 0 4.453 0 0 4.182 0 11.925v29.888h18.121V16.106h-7.832V12.7c0-2.633.921-3.252 3.993-3.252 1.382 0 2.917.154 4.607.464L20.271.93zm25.953 0C44.227.31 41.77 0 39.467 0c-9.061 0-13.514 4.182-13.514 11.925v29.888h18.121V16.106h-7.832V12.7c0-2.633.921-3.252 3.993-3.252 1.382 0 2.918.154 4.607.464L46.224.93z" style="isolation:isolate" fill-rule="evenodd" opacity=".051"/></svg>