<svg data-name="レイヤー_1" xmlns="http://www.w3.org/2000/svg" viewBox="0 0 26.251 25.013"><path d="M26.251 10.652C26.251 4.778 20.363 0 13.125 0S0 4.778 0 10.652c0 5.265 4.67 9.675 10.977 10.509.427.092 1.009.282 1.156.647.132.332.087.852.043 1.187l-.187 1.124c-.057.332-.264 1.298 1.137.708 1.401-.59 7.559-4.451 10.313-7.62 1.902-2.086 2.813-4.203 2.813-6.554zm-17.756 3.14a.251.251 0 01-.251.251H4.556a.251.251 0 01-.251-.251V8.064c0-.138.112-.251.251-.251h.931c.138 0 .251.113.251.251v4.547h2.506c.138 0 .251.113.251.251v.931zm2.22 0a.251.251 0 01-.251.251h-.931a.251.251 0 01-.251-.251V8.064c0-.138.112-.251.251-.251h.931c.138 0 .251.112.251.251v5.728zm6.336 0a.251.251 0 01-.251.251h-.926a.227.227 0 01-.065-.009h-.004l-.017-.006c-.003 0-.005-.002-.008-.003l-.012-.005-.012-.006-.007-.004-.016-.01-.003-.002a.277.277 0 01-.065-.063l-2.624-3.544v3.401a.251.251 0 01-.251.251h-.931a.251.251 0 01-.251-.251V8.064c0-.138.112-.251.251-.251h.948l.014.002c.004 0 .007 0 .011.002l.015.003a.03.03 0 01.009.002l.015.005c.003 0 .005.002.008.003l.015.006a.03.03 0 01.008.004l.014.008.008.005.013.009.007.005.014.011.005.004.015.016.002.002a.256.256 0 01.02.026l2.621 3.539V8.063c0-.138.112-.251.251-.251h.931c.138 0 .251.112.251.251v5.728zm5.084-4.797a.251.251 0 01-.251.251h-2.506v.967h2.506c.138 0 .251.113.251.251v.931a.251.251 0 01-.251.251h-2.506v.967h2.506c.138 0 .251.113.251.251v.931a.251.251 0 01-.251.251h-3.688a.251.251 0 01-.251-.251V8.067c0-.138.112-.251.251-.251h3.688c.138 0 .251.113.251.251v.931z" fill="#07c856"/></svg>