<svg data-name="レイヤー_1" xmlns="http://www.w3.org/2000/svg" viewBox="0 0 222.377 61.037"><path d="M119.177 24.488c6.084 5.483 13.702 8.872 21.119 12.167-3.439-2.194-6.925-4.275-10.424-6.331-3.563-2.001-6.836-4.37-10.695-5.836zm43.961-1.414c1.864 2.198 3.955 4.056 5.953 6.109 1.783 2.121 3.95 4.228 5.613 6.44-2.547-5.165-6.433-9.81-11.567-12.549zm-116.111-1.05c1.981 1.025 4.328 1.107 6.499.671-2.137-.729-4.267-.8-6.499-.671zm2.204 17.133c.19-1.324.271-2.627.325-3.923-.155-3.845.305-7.811 3.295-10.576-5.108 2.876-4.981 9.527-3.619 14.499zm23.209 0c.57-4.96-.194-10.072 1.765-14.797-1.43 2.109-2.524 4.64-2.485 7.239-.107 2.512-.208 5.151.72 7.558z"/><path d="M188.937 35.544c-.38-1.691-1.352-3.737-2.44-5.312a16.278 16.278 0 00-9.46-6.831c-5.672-1.661-11.52-2.587-17.362-3.387-3.827-.487-7.625-.864-11.426-1.3-4.024-3.46-8.04-6.914-12.183-10.259C125.301-.637 102.169-.331 88.582.243c-6.751.388-13.56.761-20.207 2.228-6.788 1.644-12.285 6.253-17.004 11.175-2.766 2.985-4.979 6.305-8.156 8.771-1.067.866-2.186 1.144-3.492 1.62-2.61.945-4.887 2.746-6.451 4.943 1.996-1.786 4.234-3.212 6.788-3.988 1.26-.325 2.781-.759 3.849-1.611 3.326-2.395 5.792-5.834 8.525-8.728 1.88-1.854 3.823-3.732 5.897-5.347 4.149-3.325 9.027-5.373 14.331-5.963 15.641-1.952 50.041-3.8 62.245 6.562 4.174 3.362 8.327 6.797 12.465 10.231l.207.171.244.021c7.816.619 15.6 1.128 23.308 2.532 3.75.765 7.755 1.304 10.973 3.521 3.168 2.198 5.6 5.566 6.696 9.271 1.326 1.291 2.564 2.686 3.596 4.231-.979-1.571-2.171-3.004-3.457-4.339z"/><path d="M182.636 35.003c-3.062-1.264-9.544-6.318-7.584-10.061-1.192 1.258-.917 3.297-.235 4.761 1.331 3.119 4.315 5.298 7.538 6.131 1.589.39 3.308.584 4.853.058-1.601.165-3.147-.311-4.572-.888zm-81.239-9.509c-5.425 8.098 9.771 13.01 15.737 12.164 1.116-.158 2.324-.468 3.118-1.297-.974.566-2.082.637-3.154.612-5.314-.359-19.124-3.965-15.701-11.478zm6.315-2.283c-1.742-.073-3.598.106-5.133 1.01-.497.329-.933.754-1.182 1.273.771-.865 1.872-1.161 2.949-1.272 5.507-.475 10.879 2.117 14.32 6.388 1.185 1.558 3.101 3.829 1.587 5.751 2.122-1.598.444-4.704-.709-6.417-2.613-3.911-7.101-6.627-11.831-6.732zm-43.497-8.366c-3.245-.539-10.745 1.344-10.865 5.37-.027 1.026.657 1.949 1.459 2.473 2.186 1.351 4.821 1.433 7.286 1.503l1.21-.013c1.3-.19 1.899.747 2.441 1.865-.127-1.354-.931-2.626-2.429-2.527l-1.199-.063c-1.585-.096-3.144-.34-4.64-.792-2.068-.525-4.077-2.142-2-4.03 1.754-1.36 4.155-1.918 6.327-2.283 1.518-.257 2.937-.228 4.095.634 2.322 1.894 3.198 5.4 4.016 8.255-.399-3.861-1.127-9.353-5.701-10.392zm12.575 8.098c-.807-3.844-2.004-7.598-3.153-11.349-.42-1.235-.619-2.779-1.577-3.836-1.685-1.682-4.504-1.611-6.547-.941 1.688-.342 3.558-.115 5.043.681 1.5.805 1.503 2.644 1.911 4.406.683 3.208 1.359 6.418 2.228 9.58l-3.654 1.125c.669.044 5.198.294 5.748.333zm18.994-3.752c-5.126.36-10.21.681-15.363 1.396-1.227-4.188-2.859-8.709-4.014-12.843-.479-1.511.333-2.797 1.488-3.806-1.703.415-3.024 2.25-2.588 4.034.911 5.027 2.254 9.929 3.699 14.813 5.562-.827 11.285-1.308 16.912-1.818 16.134-1.522 32.344-2.13 48.521-.841-16.108-2.026-32.456-2.071-48.655-.936zm-63.17 11.514c-2.336 2.095-3.04 5.52-2.63 8.452.557-5.42 5.258-12.287 9.682-5.391.94 1.59 1.452 3.454 1.768 5.391.272-1.944.07-4.018-.786-5.899-1.279-3.229-5.161-5.144-8.033-2.553zm43.583 8.452c1.144-4.52 4.683-8.85 9.506-8.806 4.884-.021 8.072 4.567 9.807 8.806-.16-2.521-1.047-5.059-2.69-7.159-6.1-7.757-17.236-1.998-16.622 7.159zM0 60.848V50.109h13.905v1.543H1.921v3.071h11.685v1.307H1.921v3.275h11.984v1.543H0zm16.442 0V50.109h11.102c2.425 0 3.338.992 3.338 2.677-.016 1.212-.614 2.094-1.795 2.441 1.464.299 2.205 1.228 2.205 2.771 0 1.953-1.102 2.85-3.701 2.85H16.442zm1.889-9.243v3.134h8.913c1.039 0 1.842-.472 1.842-1.575 0-1.071-.583-1.559-2.016-1.559h-8.74zm0 4.535v3.323h8.929c1.59 0 2.22-.425 2.22-1.669 0-1.229-.771-1.654-2.063-1.654h-9.086zm15.598 4.708V50.109h1.921v10.739h-1.921zm9.102 0V50.109h9.59c4.11 0 6.283 1.433 6.283 5.354 0 3.969-2.189 5.386-6.283 5.386h-9.59zm1.921-1.653h7.496c3.244 0 4.472-1.008 4.472-3.732s-1.228-3.7-4.472-3.7h-7.496v7.433zm15.873 1.653V50.109h1.921v10.739h-1.921zm11.764-10.897c2.488 0 5.212.425 7.244.929l-.362 1.622c-1.827-.394-4.441-.882-7.008-.882-4.488 0-5.874 1.244-5.874 3.858s1.386 3.874 5.874 3.874c1.921 0 3.921-.315 5.385-.598v-3.433h1.984v4.771c-2.031.504-4.756.929-7.244.929-5.574 0-7.921-1.795-7.921-5.543s2.346-5.527 7.921-5.527zm9.165 10.897V50.109h1.921v10.739h-1.921zm3.458-9.086v-1.653h14.865v1.653h-6.472v9.086h-1.921v-9.086h-6.472zm25.732 6.63h-9.48l-1.669 2.457H97.48l7.464-10.739h2.535l7.48 10.739h-2.331l-1.685-2.457zm-.945-1.386l-3.795-5.559-3.795 5.559h7.59zm19.322 2.189v1.653h-13.653V50.109h1.921v9.086h11.731zm13.259 1.842c-2.457 0-5.48-.346-7.323-.771l.268-1.575c2.031.441 4.929.803 7.496.803 3.685 0 4.377-.425 4.377-1.543 0-1.181-.708-1.37-2.063-1.512l-6.125-.535c-2.756-.205-4.125-.929-4.125-2.897 0-2.221 1.779-3.071 6.629-3.071 2.047 0 5.07.299 7.023.708l-.315 1.496c-1.827-.362-4.803-.662-7.102-.662-3.716 0-4.409.378-4.409 1.48 0 1.039.771 1.228 2.22 1.386l5.968.504c2.629.205 4.125.882 4.125 3.149 0 2.142-1.48 3.039-6.645 3.039zm7.898-9.275v-1.653h14.865v1.653h-6.472v9.086h-1.921v-9.086h-6.472zm29.377-1.653h1.921v5.496c0 3.716-2.834 5.417-7.448 5.417s-7.448-1.701-7.448-5.417v-5.496h1.921v5.149c0 2.834 1.748 4.094 5.527 4.094s5.527-1.26 5.527-4.094v-5.149zm3.943 10.739V50.109h9.59c4.11 0 6.283 1.433 6.283 5.354 0 3.969-2.189 5.386-6.283 5.386h-9.59zm1.921-1.653h7.496c3.244 0 4.472-1.008 4.472-3.732s-1.228-3.7-4.472-3.7h-7.496v7.433zm15.873 1.653V50.109h1.921v10.739h-1.921zm3.842-5.369c0-3.858 2.661-5.559 8.472-5.559s8.472 1.701 8.472 5.559-2.661 5.559-8.472 5.559-8.472-1.701-8.472-5.559zm14.991 0c0-2.693-1.638-3.89-6.52-3.89s-6.551 1.197-6.551 3.89 1.669 3.889 6.551 3.889 6.52-1.196 6.52-3.889z"/></svg>